<?xml version="1.0" encoding="UTF-8"?>
<svg baseProfile="full" version="1.1" viewBox="0 0 406 648" xmlns="http://www.w3.org/2000/svg"><text x="117.195" y="18" fill="#303e51">.</text><text x="126.21" y="18" fill="#394658">.</text><text x="135.225" y="18" fill="#435061">:</text><text x="144.24" y="18" fill="#4c5869">−</text><text x="153.255" y="18" fill="#4d5969">−</text><text x="162.27" y="18" fill="#4a5667">−</text><text x="171.285" y="18" fill="#4b5768">−</text><text x="180.3" y="18" fill="#5e6978">÷</text><text x="189.315" y="18" fill="#535e6e">−</text><text x="198.33" y="18" fill="#404d5e">:</text><text x="207.345" y="18" fill="#2e3c4f">.</text><text x="81.135" y="36" fill="#344255">.</text><text x="90.15" y="36" fill="#495566">:</text><text x="99.165" y="36" fill="#566171">−</text><text x="108.18" y="36" fill="#5e6978">÷</text><text x="117.195" y="36" fill="#697381">+</text><text x="126.21" y="36" fill="#6a7482">+</text><text x="135.225" y="36" fill="#697381">+</text><text x="144.24" y="36" fill="#687280">+</text><text x="153.255" y="36" fill="#66707e">÷</text><text x="162.27" y="36" fill="#5e6978">÷</text><text x="171.285" y="36" fill="#586372">−</text><text x="180.3" y="36" fill="#66707e">÷</text><text x="189.315" y="36" fill="#656f7e">÷</text><text x="198.33" y="36" fill="#767f8c">+</text><text x="207.345" y="36" fill="#717a87">+</text><text x="216.36" y="36" fill="#697381">+</text><text x="225.375" y="36" fill="#67717f">÷</text><text x="234.39" y="36" fill="#626c7b">÷</text><text x="243.405" y="36" fill="#636d7b">÷</text><text x="252.42" y="36" fill="#5a6574">÷</text><text x="261.435" y="36" fill="#455263">:</text><text x="72.12" y="54" fill="#3d4a5c">:</text><text x="81.135" y="54" fill="#525d6d">−</text><text x="90.15" y="54" fill="#5d6877">÷</text><text x="99.165" y="54" fill="#5b6675">÷</text><text x="108.18" y="54" fill="#505b6c">−</text><text x="117.195" y="54" fill="#465264">:</text><text x="126.21" y="54" fill="#434f61">:</text><text x="135.225" y="54" fill="#344255">.</text><text x="144.24" y="54" fill="#3c485b">:</text><text x="153.255" y="54" fill="#495566">:</text><text x="162.27" y="54" fill="#525d6d">−</text><text x="171.285" y="54" fill="#4f5b6b">−</text><text x="180.3" y="54" fill="#4c5869">−</text><text x="189.315" y="54" fill="#4b5768">−</text><text x="198.33" y="54" fill="#535f6f">−</text><text x="207.345" y="54" fill="#606a79">÷</text><text x="216.36" y="54" fill="#5b6575">÷</text><text x="225.375" y="54" fill="#5e6978">÷</text><text x="234.39" y="54" fill="#697381">+</text><text x="243.405" y="54" fill="#7b8490">×</text><text x="252.42" y="54" fill="#848c98">×</text><text x="261.435" y="54" fill="#808894">×</text><text x="270.45" y="54" fill="#646f7d">÷</text><text x="279.465" y="54" fill="#2f3d50">.</text><text x="63.105" y="72" fill="#3f4c5e">:</text><text x="72.12" y="72" fill="#475364">:</text><text x="81.135" y="72" fill="#3e4b5d">:</text><text x="90.15" y="72" fill="#334053">.</text><text x="99.165" y="72" fill="#2e3c4f">.</text><text x="108.18" y="72" fill="#3a4759">.</text><text x="117.195" y="72" fill="#4f5b6b">−</text><text x="126.21" y="72" fill="#707987">+</text><text x="135.225" y="72" fill="#959ca6">*</text><text x="144.24" y="72" fill="#b7bbc2">%</text><text x="153.255" y="72" fill="#c8ccd1">#</text><text x="162.27" y="72" fill="#d0d3d7">#</text><text x="171.285" y="72" fill="#d7d9dd">@</text><text x="180.3" y="72" fill="#dadde0">@</text><text x="189.315" y="72" fill="#d5d8db">@</text><text x="198.33" y="72" fill="#cbcfd3">#</text><text x="207.345" y="72" fill="#b9bec4">%</text><text x="216.36" y="72" fill="#a2a8b1">*</text><text x="225.375" y="72" fill="#8c949e">=</text><text x="234.39" y="72" fill="#78818d">×</text><text x="243.405" y="72" fill="#67717f">÷</text><text x="252.42" y="72" fill="#596473">÷</text><text x="261.435" y="72" fill="#566171">−</text><text x="270.45" y="72" fill="#66707e">÷</text><text x="279.465" y="72" fill="#66707e">÷</text><text x="288.48" y="72" fill="#455263">:</text><text x="297.495" y="72" fill="#2c3a4e">.</text><text x="54.09" y="90" fill="#323f52">.</text><text x="63.105" y="90" fill="#364356">.</text><text x="72.12" y="90" fill="#2c3a4d">.</text><text x="90.15" y="90" fill="#384558">.</text><text x="99.165" y="90" fill="#77808d">×</text><text x="108.18" y="90" fill="#b8bdc4">%</text><text x="117.195" y="90" fill="#e0e2e5">░</text><text x="126.21" y="90" fill="#f4f5f6">▒</text><text x="135.225" y="90" fill="#ffffff">▒</text><text x="144.24" y="90" fill="#ffffff">▒</text><text x="153.255" y="90" fill="#ffffff">▒</text><text x="162.27" y="90" fill="#ffffff">▒</text><text x="171.285" y="90" fill="#ffffff">▒</text><text x="180.3" y="90" fill="#ffffff">▒</text><text x="189.315" y="90" fill="#ffffff">▒</text><text x="198.33" y="90" fill="#ffffff">▒</text><text x="207.345" y="90" fill="#ffffff">▒</text><text x="216.36" y="90" fill="#ffffff">▒</text><text x="225.375" y="90" fill="#f9fafa">▒</text><text x="234.39" y="90" fill="#eff0f2">▒</text><text x="243.405" y="90" fill="#dfe2e4">@</text><text x="252.42" y="90" fill="#c0c5ca">%</text><text x="261.435" y="90" fill="#8b939e">=</text><text x="270.45" y="90" fill="#5c6776">÷</text><text x="279.465" y="90" fill="#5c6776">÷</text><text x="288.48" y="90" fill="#687280">+</text><text x="297.495" y="90" fill="#515c6c">−</text><text x="306.51" y="90" fill="#323f52">.</text><text x="54.09" y="108" fill="#334053">.</text><text x="81.135" y="108" fill="#78818d">×</text><text x="90.15" y="108" fill="#caced3">#</text><text x="99.165" y="108" fill="#eff0f2">▒</text><text x="108.18" y="108" fill="#f9fafa">▒</text><text x="117.195" y="108" fill="#fcfcfc">▒</text><text x="126.21" y="108" fill="#fefefe">▒</text><text x="135.225" y="108" fill="#ffffff">▒</text><text x="144.24" y="108" fill="#ffffff">▒</text><text x="153.255" y="108" fill="#ffffff">▒</text><text x="162.27" y="108" fill="#ffffff">▒</text><text x="171.285" y="108" fill="#ffffff">▒</text><text x="180.3" y="108" fill="#ffffff">▒</text><text x="189.315" y="108" fill="#ffffff">▒</text><text x="198.33" y="108" fill="#ffffff">▒</text><text x="207.345" y="108" fill="#ffffff">▒</text><text x="216.36" y="108" fill="#ffffff">▒</text><text x="225.375" y="108" fill="#fefefe">▒</text><text x="234.39" y="108" fill="#fbfbfc">▒</text><text x="243.405" y="108" fill="#f7f8f9">▒</text><text x="252.42" y="108" fill="#f8f9f9">▒</text><text x="261.435" y="108" fill="#f5f5f6">▒</text><text x="270.45" y="108" fill="#d9dcdf">@</text><text x="279.465" y="108" fill="#9da3ad">*</text><text x="288.48" y="108" fill="#6d7784">+</text><text x="297.495" y="108" fill="#616b7a">÷</text><text x="306.51" y="108" fill="#4c5869">−</text><text x="315.525" y="108" fill="#2d3b4f">.</text><text x="45.075" y="126" fill="#344154">.</text><text x="63.105" y="126" fill="#354355">.</text><text x="72.12" y="126" fill="#aab0b8">&amp;</text><text x="81.135" y="126" fill="#eeeff0">░</text><text x="90.15" y="126" fill="#f4f5f6">▒</text><text x="99.165" y="126" fill="#f4f5f6">▒</text><text x="108.18" y="126" fill="#f8f9f9">▒</text><text x="117.195" y="126" fill="#fcfcfc">▒</text><text x="126.21" y="126" fill="#fefefe">▒</text><text x="135.225" y="126" fill="#ffffff">▒</text><text x="144.24" y="126" fill="#ffffff">▒</text><text x="153.255" y="126" fill="#ffffff">▒</text><text x="162.27" y="126" fill="#ffffff">▒</text><text x="171.285" y="126" fill="#ffffff">▒</text><text x="180.3" y="126" fill="#ffffff">▒</text><text x="189.315" y="126" fill="#ffffff">▒</text><text x="198.33" y="126" fill="#ffffff">▒</text><text x="207.345" y="126" fill="#ffffff">▒</text><text x="216.36" y="126" fill="#ffffff">▒</text><text x="225.375" y="126" fill="#ffffff">▒</text><text x="234.39" y="126" fill="#fefefe">▒</text><text x="243.405" y="126" fill="#fcfcfc">▒</text><text x="252.42" y="126" fill="#f9fafa">▒</text><text x="261.435" y="126" fill="#f5f5f6">▒</text><text x="270.45" y="126" fill="#f2f3f4">▒</text><text x="279.465" y="126" fill="#f3f4f5">▒</text><text x="288.48" y="126" fill="#d5d8db">@</text><text x="297.495" y="126" fill="#7f8793">×</text><text x="306.51" y="126" fill="#626c7b">÷</text><text x="315.525" y="126" fill="#465264">:</text><text x="45.075" y="144" fill="#323f52">.</text><text x="54.09" y="144" fill="#435061">:</text><text x="63.105" y="144" fill="#b8bdc4">%</text><text x="72.12" y="144" fill="#eff0f2">▒</text><text x="81.135" y="144" fill="#eff0f1">░</text><text x="90.15" y="144" fill="#f1f2f3">▒</text><text x="99.165" y="144" fill="#f3f4f5">▒</text><text x="108.18" y="144" fill="#f7f8f9">▒</text><text x="117.195" y="144" fill="#fbfbfc">▒</text><text x="126.21" y="144" fill="#fefefe">▒</text><text x="135.225" y="144" fill="#ffffff">▒</text><text x="144.24" y="144" fill="#ffffff">▒</text><text x="153.255" y="144" fill="#ffffff">▒</text><text x="162.27" y="144" fill="#ffffff">▒</text><text x="171.285" y="144" fill="#ffffff">▒</text><text x="180.3" y="144" fill="#ffffff">▒</text><text x="189.315" y="144" fill="#ffffff">▒</text><text x="198.33" y="144" fill="#ffffff">▒</text><text x="207.345" y="144" fill="#ffffff">▒</text><text x="216.36" y="144" fill="#ffffff">▒</text><text x="225.375" y="144" fill="#ffffff">▒</text><text x="234.39" y="144" fill="#ffffff">▒</text><text x="243.405" y="144" fill="#fefefe">▒</text><text x="252.42" y="144" fill="#fcfcfc">▒</text><text x="261.435" y="144" fill="#f7f8f9">▒</text><text x="270.45" y="144" fill="#f3f4f5">▒</text><text x="279.465" y="144" fill="#eff0f2">▒</text><text x="288.48" y="144" fill="#ecedef">░</text><text x="297.495" y="144" fill="#b6bbc1">%</text><text x="306.51" y="144" fill="#687280">+</text><text x="315.525" y="144" fill="#54606f">−</text><text x="54.09" y="162" fill="#979ea7">*</text><text x="63.105" y="162" fill="#eaebed">░</text><text x="72.12" y="162" fill="#e9ebed">░</text><text x="81.135" y="162" fill="#edeef0">░</text><text x="90.15" y="162" fill="#f0f1f3">▒</text><text x="99.165" y="162" fill="#f7f7f8">▒</text><text x="108.18" y="162" fill="#fafafb">▒</text><text x="117.195" y="162" fill="#fdfdfd">▒</text><text x="126.21" y="162" fill="#ffffff">▒</text><text x="135.225" y="162" fill="#ffffff">▒</text><text x="144.24" y="162" fill="#ffffff">▒</text><text x="153.255" y="162" fill="#ffffff">▒</text><text x="162.27" y="162" fill="#ffffff">▒</text><text x="171.285" y="162" fill="#ffffff">▒</text><text x="180.3" y="162" fill="#ffffff">▒</text><text x="189.315" y="162" fill="#ffffff">▒</text><text x="198.33" y="162" fill="#ffffff">▒</text><text x="207.345" y="162" fill="#ffffff">▒</text><text x="216.36" y="162" fill="#ffffff">▒</text><text x="225.375" y="162" fill="#ffffff">▒</text><text x="234.39" y="162" fill="#ffffff">▒</text><text x="243.405" y="162" fill="#ffffff">▒</text><text x="252.42" y="162" fill="#fefefe">▒</text><text x="261.435" y="162" fill="#f8f9f9">▒</text><text x="270.45" y="162" fill="#f6f6f7">▒</text><text x="279.465" y="162" fill="#eff0f2">▒</text><text x="288.48" y="162" fill="#e6e7ea">░</text><text x="297.495" y="162" fill="#aab0b8">&amp;</text><text x="306.51" y="162" fill="#747d8a">+</text><text x="315.525" y="162" fill="#5c6776">÷</text><text x="324.54" y="162" fill="#465264">:</text><text x="54.09" y="180" fill="#9da3ad">*</text><text x="63.105" y="180" fill="#e2e4e7">░</text><text x="72.12" y="180" fill="#e8eaec">░</text><text x="81.135" y="180" fill="#ecedef">░</text><text x="90.15" y="180" fill="#eff0f2">▒</text><text x="99.165" y="180" fill="#f3f4f5">▒</text><text x="108.18" y="180" fill="#f8f9f9">▒</text><text x="117.195" y="180" fill="#fcfcfc">▒</text><text x="126.21" y="180" fill="#ffffff">▒</text><text x="135.225" y="180" fill="#ffffff">▒</text><text x="144.24" y="180" fill="#ffffff">▒</text><text x="153.255" y="180" fill="#ffffff">▒</text><text x="162.27" y="180" fill="#ffffff">▒</text><text x="171.285" y="180" fill="#ffffff">▒</text><text x="180.3" y="180" fill="#ffffff">▒</text><text x="189.315" y="180" fill="#ffffff">▒</text><text x="198.33" y="180" fill="#ffffff">▒</text><text x="207.345" y="180" fill="#fefefe">▒</text><text x="216.36" y="180" fill="#f7f7f8">▒</text><text x="225.375" y="180" fill="#f0f1f3">▒</text><text x="234.39" y="180" fill="#eeeff0">░</text><text x="243.405" y="180" fill="#eff0f2">▒</text><text x="252.42" y="180" fill="#f2f3f4">▒</text><text x="261.435" y="180" fill="#f4f5f6">▒</text><text x="270.45" y="180" fill="#f3f4f5">▒</text><text x="279.465" y="180" fill="#f0f1f3">▒</text><text x="288.48" y="180" fill="#edeef0">░</text><text x="297.495" y="180" fill="#b5bac1">%</text><text x="306.51" y="180" fill="#6b7583">+</text><text x="315.525" y="180" fill="#626c7b">÷</text><text x="324.54" y="180" fill="#5e6978">÷</text><text x="333.555" y="180" fill="#2c3a4d">.</text><text x="54.09" y="198" fill="#727b88">+</text><text x="63.105" y="198" fill="#c8ccd1">#</text><text x="72.12" y="198" fill="#c7cad0">#</text><text x="81.135" y="198" fill="#c9cdd2">#</text><text x="90.15" y="198" fill="#c7cad0">#</text><text x="99.165" y="198" fill="#bfc3c9">%</text><text x="108.18" y="198" fill="#bec2c8">%</text><text x="117.195" y="198" fill="#c3c7cd">#</text><text x="126.21" y="198" fill="#c8ccd1">#</text><text x="135.225" y="198" fill="#d7d9dd">@</text><text x="144.24" y="198" fill="#d3d6da">@</text><text x="153.255" y="198" fill="#cfd2d6">#</text><text x="162.27" y="198" fill="#c0c4ca">%</text><text x="171.285" y="198" fill="#b8bdc4">%</text><text x="180.3" y="198" fill="#bfc3c9">%</text><text x="189.315" y="198" fill="#bfc3c9">%</text><text x="198.33" y="198" fill="#a5abb3">&amp;</text><text x="207.345" y="198" fill="#9ca3ac">*</text><text x="216.36" y="198" fill="#949ba5">=</text><text x="225.375" y="198" fill="#9199a3">=</text><text x="234.39" y="198" fill="#9da3ad">*</text><text x="243.405" y="198" fill="#b2b7be">&amp;</text><text x="252.42" y="198" fill="#c0c5ca">%</text><text x="261.435" y="198" fill="#c0c5ca">%</text><text x="270.45" y="198" fill="#979ea7">*</text><text x="279.465" y="198" fill="#9199a3">=</text><text x="288.48" y="198" fill="#9199a3">=</text><text x="297.495" y="198" fill="#9fa5ae">*</text><text x="306.51" y="198" fill="#88909b">=</text><text x="315.525" y="198" fill="#66707e">÷</text><text x="324.54" y="198" fill="#636e7c">÷</text><text x="333.555" y="198" fill="#384558">.</text><text x="45.075" y="216" fill="#2c3a4d">.</text><text x="54.09" y="216" fill="#424e60">:</text><text x="63.105" y="216" fill="#868e99">=</text><text x="72.12" y="216" fill="#a7adb5">&amp;</text><text x="81.135" y="216" fill="#b0b5bc">&amp;</text><text x="90.15" y="216" fill="#b1b6bd">&amp;</text><text x="99.165" y="216" fill="#9da3ad">*</text><text x="108.18" y="216" fill="#878f9a">=</text><text x="117.195" y="216" fill="#7a828f">×</text><text x="126.21" y="216" fill="#6d7784">+</text><text x="135.225" y="216" fill="#707987">+</text><text x="144.24" y="216" fill="#525d6d">−</text><text x="153.255" y="216" fill="#6d7784">+</text><text x="162.27" y="216" fill="#8d959f">=</text><text x="171.285" y="216" fill="#818995">×</text><text x="180.3" y="216" fill="#435061">:</text><text x="189.315" y="216" fill="#566171">−</text><text x="198.33" y="216" fill="#868e99">=</text><text x="207.345" y="216" fill="#7f8793">×</text><text x="216.36" y="216" fill="#89909b">=</text><text x="225.375" y="216" fill="#8a919c">=</text><text x="234.39" y="216" fill="#7b8490">×</text><text x="243.405" y="216" fill="#7e8792">×</text><text x="252.42" y="216" fill="#8c949e">=</text><text x="261.435" y="216" fill="#929aa4">=</text><text x="270.45" y="216" fill="#a9aeb6">&amp;</text><text x="279.465" y="216" fill="#5e6978">÷</text><text x="288.48" y="216" fill="#515c6c">−</text><text x="297.495" y="216" fill="#929aa4">=</text><text x="306.51" y="216" fill="#aeb3bb">&amp;</text><text x="315.525" y="216" fill="#8a929d">=</text><text x="324.54" y="216" fill="#737d8a">+</text><text x="333.555" y="216" fill="#3e4b5d">:</text><text x="45.075" y="234" fill="#334053">.</text><text x="54.09" y="234" fill="#4c5869">−</text><text x="63.105" y="234" fill="#a1a8b0">*</text><text x="72.12" y="234" fill="#aab0b8">&amp;</text><text x="81.135" y="234" fill="#99a0aa">*</text><text x="90.15" y="234" fill="#a1a7b0">*</text><text x="99.165" y="234" fill="#979ea7">*</text><text x="108.18" y="234" fill="#838b97">×</text><text x="117.195" y="234" fill="#878f9a">=</text><text x="126.21" y="234" fill="#929aa4">=</text><text x="135.225" y="234" fill="#828b96">×</text><text x="144.24" y="234" fill="#4b5767">−</text><text x="153.255" y="234" fill="#aeb3bb">&amp;</text><text x="162.27" y="234" fill="#ffffff">▒</text><text x="171.285" y="234" fill="#fefefe">▒</text><text x="180.3" y="234" fill="#6f7886">+</text><text x="189.315" y="234" fill="#77808d">×</text><text x="198.33" y="234" fill="#b9bec4">%</text><text x="207.345" y="234" fill="#a6acb4">&amp;</text><text x="216.36" y="234" fill="#c0c4ca">%</text><text x="225.375" y="234" fill="#c8ccd1">#</text><text x="234.39" y="234" fill="#c5c9ce">#</text><text x="243.405" y="234" fill="#c4c8cd">#</text><text x="252.42" y="234" fill="#bdc1c7">%</text><text x="261.435" y="234" fill="#abb1b8">&amp;</text><text x="270.45" y="234" fill="#b5bac1">%</text><text x="279.465" y="234" fill="#999fa9">*</text><text x="288.48" y="234" fill="#aab0b8">&amp;</text><text x="297.495" y="234" fill="#d8dade">@</text><text x="306.51" y="234" fill="#cfd2d6">#</text><text x="315.525" y="234" fill="#89909b">=</text><text x="324.54" y="234" fill="#959ca6">*</text><text x="333.555" y="234" fill="#848c98">×</text><text x="342.57" y="234" fill="#3e4b5d">:</text><text x="54.09" y="252" fill="#3d4a5c">:</text><text x="63.105" y="252" fill="#959ca6">*</text><text x="72.12" y="252" fill="#adb2ba">&amp;</text><text x="81.135" y="252" fill="#9ca3ac">*</text><text x="90.15" y="252" fill="#bbc0c6">%</text><text x="99.165" y="252" fill="#cccfd4">#</text><text x="108.18" y="252" fill="#cfd2d6">#</text><text x="117.195" y="252" fill="#cdd0d5">#</text><text x="126.21" y="252" fill="#c7cad0">#</text><text x="135.225" y="252" fill="#b1b6bd">&amp;</text><text x="144.24" y="252" fill="#5e6978">÷</text><text x="153.255" y="252" fill="#dee0e3">@</text><text x="162.27" y="252" fill="#ffffff">▒</text><text x="171.285" y="252" fill="#ffffff">▒</text><text x="180.3" y="252" fill="#dddfe2">@</text><text x="189.315" y="252" fill="#727b88">+</text><text x="198.33" y="252" fill="#b9bec4">%</text><text x="207.345" y="252" fill="#edeef0">░</text><text x="216.36" y="252" fill="#e8eaec">░</text><text x="225.375" y="252" fill="#e3e5e7">░</text><text x="234.39" y="252" fill="#e5e7e9">░</text><text x="243.405" y="252" fill="#e6e7ea">░</text><text x="252.42" y="252" fill="#e9ebed">░</text><text x="261.435" y="252" fill="#f3f4f5">▒</text><text x="270.45" y="252" fill="#d9dcdf">@</text><text x="279.465" y="252" fill="#adb2ba">&amp;</text><text x="288.48" y="252" fill="#eaebed">░</text><text x="297.495" y="252" fill="#eaebed">░</text><text x="306.51" y="252" fill="#e7e9eb">░</text><text x="315.525" y="252" fill="#b9bec4">%</text><text x="324.54" y="252" fill="#b5bac1">%</text><text x="333.555" y="252" fill="#b5bac1">%</text><text x="342.57" y="252" fill="#818995">×</text><text x="54.09" y="270" fill="#3a4759">.</text><text x="63.105" y="270" fill="#8e95a0">=</text><text x="72.12" y="270" fill="#bdc1c7">%</text><text x="81.135" y="270" fill="#d8dade">@</text><text x="90.15" y="270" fill="#dee0e3">@</text><text x="99.165" y="270" fill="#dee0e3">@</text><text x="108.18" y="270" fill="#dbdde1">@</text><text x="117.195" y="270" fill="#d3d6da">@</text><text x="126.21" y="270" fill="#bdc1c7">%</text><text x="135.225" y="270" fill="#77808d">×</text><text x="144.24" y="270" fill="#b1b6bd">&amp;</text><text x="153.255" y="270" fill="#f9fafa">▒</text><text x="162.27" y="270" fill="#ffffff">▒</text><text x="171.285" y="270" fill="#ffffff">▒</text><text x="180.3" y="270" fill="#ffffff">▒</text><text x="189.315" y="270" fill="#eaebed">░</text><text x="198.33" y="270" fill="#9ba2ab">*</text><text x="207.345" y="270" fill="#999fa9">*</text><text x="216.36" y="270" fill="#c9cdd2">#</text><text x="225.375" y="270" fill="#e9ebed">░</text><text x="234.39" y="270" fill="#e9ebed">░</text><text x="243.405" y="270" fill="#e3e5e7">░</text><text x="252.42" y="270" fill="#d8dbde">@</text><text x="261.435" y="270" fill="#c5c9ce">#</text><text x="270.45" y="270" fill="#cdd0d5">#</text><text x="279.465" y="270" fill="#f6f6f7">▒</text><text x="288.48" y="270" fill="#f4f5f6">▒</text><text x="297.495" y="270" fill="#eeeff0">░</text><text x="306.51" y="270" fill="#eaebed">░</text><text x="315.525" y="270" fill="#caced3">#</text><text x="324.54" y="270" fill="#a3a9b2">*</text><text x="333.555" y="270" fill="#d6d8dc">@</text><text x="342.57" y="270" fill="#a7adb5">&amp;</text><text x="63.105" y="288" fill="#a5abb3">&amp;</text><text x="72.12" y="288" fill="#c1c5cb">%</text><text x="81.135" y="288" fill="#b6bbc1">%</text><text x="90.15" y="288" fill="#b9bec4">%</text><text x="99.165" y="288" fill="#bbc0c6">%</text><text x="108.18" y="288" fill="#bcc0c7">%</text><text x="117.195" y="288" fill="#a8adb5">&amp;</text><text x="126.21" y="288" fill="#999fa9">*</text><text x="135.225" y="288" fill="#a6acb4">&amp;</text><text x="144.24" y="288" fill="#eff0f1">░</text><text x="153.255" y="288" fill="#ffffff">▒</text><text x="162.27" y="288" fill="#ffffff">▒</text><text x="171.285" y="288" fill="#ffffff">▒</text><text x="180.3" y="288" fill="#ffffff">▒</text><text x="189.315" y="288" fill="#ffffff">▒</text><text x="198.33" y="288" fill="#ffffff">▒</text><text x="207.345" y="288" fill="#dbdde1">@</text><text x="216.36" y="288" fill="#a1a8b0">*</text><text x="225.375" y="288" fill="#a6acb4">&amp;</text><text x="234.39" y="288" fill="#b2b7be">&amp;</text><text x="243.405" y="288" fill="#cbcfd3">#</text><text x="252.42" y="288" fill="#dfe2e4">@</text><text x="261.435" y="288" fill="#f5f5f6">▒</text><text x="270.45" y="288" fill="#ffffff">▒</text><text x="279.465" y="288" fill="#fdfdfd">▒</text><text x="288.48" y="288" fill="#f7f7f8">▒</text><text x="297.495" y="288" fill="#f1f2f3">▒</text><text x="306.51" y="288" fill="#eeeff0">░</text><text x="315.525" y="288" fill="#d1d4d9">@</text><text x="324.54" y="288" fill="#b1b6bd">&amp;</text><text x="333.555" y="288" fill="#d5d8db">@</text><text x="342.57" y="288" fill="#b9bec4">%</text><text x="351.585" y="288" fill="#2d3b4f">.</text><text x="63.105" y="306" fill="#9fa5ae">*</text><text x="72.12" y="306" fill="#e7e9eb">░</text><text x="81.135" y="306" fill="#e8eaec">░</text><text x="90.15" y="306" fill="#e5e7e9">░</text><text x="99.165" y="306" fill="#eaebed">░</text><text x="108.18" y="306" fill="#eff0f2">▒</text><text x="117.195" y="306" fill="#e5e7e9">░</text><text x="126.21" y="306" fill="#cfd2d6">#</text><text x="135.225" y="306" fill="#d3d6da">@</text><text x="144.24" y="306" fill="#babfc5">%</text><text x="153.255" y="306" fill="#cccfd4">#</text><text x="162.27" y="306" fill="#e3e5e7">░</text><text x="171.285" y="306" fill="#e3e5e7">░</text><text x="180.3" y="306" fill="#e3e5e7">░</text><text x="189.315" y="306" fill="#c0c4ca">%</text><text x="198.33" y="306" fill="#99a0aa">*</text><text x="207.345" y="306" fill="#a9afb7">&amp;</text><text x="216.36" y="306" fill="#d8dade">@</text><text x="225.375" y="306" fill="#f0f1f3">▒</text><text x="234.39" y="306" fill="#e8eaec">░</text><text x="243.405" y="306" fill="#e2e4e7">░</text><text x="252.42" y="306" fill="#f4f5f6">▒</text><text x="261.435" y="306" fill="#fbfbfc">▒</text><text x="270.45" y="306" fill="#fbfbfc">▒</text><text x="279.465" y="306" fill="#f8f9f9">▒</text><text x="288.48" y="306" fill="#f3f4f5">▒</text><text x="297.495" y="306" fill="#f0f1f3">▒</text><text x="306.51" y="306" fill="#eff0f2">▒</text><text x="315.525" y="306" fill="#dee0e3">@</text><text x="324.54" y="306" fill="#a3a9b2">*</text><text x="333.555" y="306" fill="#e6e7ea">░</text><text x="342.57" y="306" fill="#a9afb7">&amp;</text><text x="63.105" y="324" fill="#a6acb4">&amp;</text><text x="72.12" y="324" fill="#e4e6e8">░</text><text x="81.135" y="324" fill="#e8eaec">░</text><text x="90.15" y="324" fill="#eff0f2">▒</text><text x="99.165" y="324" fill="#f5f5f6">▒</text><text x="108.18" y="324" fill="#f0f1f3">▒</text><text x="117.195" y="324" fill="#e7e8ea">░</text><text x="126.21" y="324" fill="#e7e8ea">░</text><text x="135.225" y="324" fill="#c8cbd0">#</text><text x="144.24" y="324" fill="#7e8792">×</text><text x="153.255" y="324" fill="#5d6877">÷</text><text x="162.27" y="324" fill="#727b88">+</text><text x="171.285" y="324" fill="#858d98">×</text><text x="180.3" y="324" fill="#8c949e">=</text><text x="189.315" y="324" fill="#7b8490">×</text><text x="198.33" y="324" fill="#7d8692">×</text><text x="207.345" y="324" fill="#7a828f">×</text><text x="216.36" y="324" fill="#88909b">=</text><text x="225.375" y="324" fill="#a6acb4">&amp;</text><text x="234.39" y="324" fill="#bdc1c7">%</text><text x="243.405" y="324" fill="#d6d8dc">@</text><text x="252.42" y="324" fill="#ebecee">░</text><text x="261.435" y="324" fill="#f3f4f5">▒</text><text x="270.45" y="324" fill="#f5f5f6">▒</text><text x="279.465" y="324" fill="#f4f5f6">▒</text><text x="288.48" y="324" fill="#f1f2f3">▒</text><text x="297.495" y="324" fill="#ecedef">░</text><text x="306.51" y="324" fill="#e8eaec">░</text><text x="315.525" y="324" fill="#d3d6da">@</text><text x="324.54" y="324" fill="#979ea7">*</text><text x="333.555" y="324" fill="#a5abb3">&amp;</text><text x="342.57" y="324" fill="#5e6978">÷</text><text x="63.105" y="342" fill="#8c949e">=</text><text x="72.12" y="342" fill="#d5d8db">@</text><text x="81.135" y="342" fill="#e1e3e6">░</text><text x="90.15" y="342" fill="#e9ebed">░</text><text x="99.165" y="342" fill="#eff0f2">▒</text><text x="108.18" y="342" fill="#dadde0">@</text><text x="117.195" y="342" fill="#afb4bb">&amp;</text><text x="126.21" y="342" fill="#a6acb4">&amp;</text><text x="135.225" y="342" fill="#8b939e">=</text><text x="144.24" y="342" fill="#717a87">+</text><text x="153.255" y="342" fill="#737d8a">+</text><text x="162.27" y="342" fill="#8f96a1">=</text><text x="171.285" y="342" fill="#a5abb3">&amp;</text><text x="180.3" y="342" fill="#c7cad0">#</text><text x="189.315" y="342" fill="#b3b8bf">%</text><text x="198.33" y="342" fill="#838b97">×</text><text x="207.345" y="342" fill="#5a6574">÷</text><text x="216.36" y="342" fill="#606a79">÷</text><text x="225.375" y="342" fill="#6a7381">+</text><text x="234.39" y="342" fill="#6f7886">+</text><text x="243.405" y="342" fill="#7d8692">×</text><text x="252.42" y="342" fill="#a7adb5">&amp;</text><text x="261.435" y="342" fill="#c2c6cc">#</text><text x="270.45" y="342" fill="#e0e2e5">░</text><text x="279.465" y="342" fill="#e8eaec">░</text><text x="288.48" y="342" fill="#e2e4e7">░</text><text x="297.495" y="342" fill="#c4c8cd">#</text><text x="306.51" y="342" fill="#b8bdc4">%</text><text x="315.525" y="342" fill="#a4aab3">&amp;</text><text x="324.54" y="342" fill="#7b8490">×</text><text x="333.555" y="342" fill="#515c6c">−</text><text x="54.09" y="360" fill="#313f52">.</text><text x="63.105" y="360" fill="#6f7886">+</text><text x="72.12" y="360" fill="#9aa1aa">*</text><text x="81.135" y="360" fill="#b8bcc3">%</text><text x="90.15" y="360" fill="#dbdde1">@</text><text x="99.165" y="360" fill="#cccfd4">#</text><text x="108.18" y="360" fill="#9aa1aa">*</text><text x="117.195" y="360" fill="#7a828f">×</text><text x="126.21" y="360" fill="#828a95">×</text><text x="135.225" y="360" fill="#707987">+</text><text x="144.24" y="360" fill="#66707e">÷</text><text x="153.255" y="360" fill="#737d8a">+</text><text x="162.27" y="360" fill="#939aa4">=</text><text x="171.285" y="360" fill="#b6bbc1">%</text><text x="180.3" y="360" fill="#dadde0">@</text><text x="189.315" y="360" fill="#d9dcdf">@</text><text x="198.33" y="360" fill="#c0c4ca">%</text><text x="207.345" y="360" fill="#bbc0c6">%</text><text x="216.36" y="360" fill="#c3c7cd">#</text><text x="225.375" y="360" fill="#c2c6cc">#</text><text x="234.39" y="360" fill="#bec2c8">%</text><text x="243.405" y="360" fill="#b6bbc1">%</text><text x="252.42" y="360" fill="#999fa9">*</text><text x="261.435" y="360" fill="#89909b">=</text><text x="270.45" y="360" fill="#999fa9">*</text><text x="279.465" y="360" fill="#afb4bb">&amp;</text><text x="288.48" y="360" fill="#b2b7be">&amp;</text><text x="297.495" y="360" fill="#8e95a0">=</text><text x="306.51" y="360" fill="#818995">×</text><text x="315.525" y="360" fill="#7a828f">×</text><text x="324.54" y="360" fill="#6b7583">+</text><text x="333.555" y="360" fill="#465264">:</text><text x="54.09" y="378" fill="#384558">.</text><text x="63.105" y="378" fill="#586372">−</text><text x="72.12" y="378" fill="#636e7c">÷</text><text x="81.135" y="378" fill="#7d8692">×</text><text x="90.15" y="378" fill="#9097a1">=</text><text x="99.165" y="378" fill="#8b939e">=</text><text x="108.18" y="378" fill="#89909b">=</text><text x="117.195" y="378" fill="#a0a6af">*</text><text x="126.21" y="378" fill="#c4c8cd">#</text><text x="135.225" y="378" fill="#d0d3d8">#</text><text x="144.24" y="378" fill="#cbcfd3">#</text><text x="153.255" y="378" fill="#d7d9dd">@</text><text x="162.27" y="378" fill="#e8eaec">░</text><text x="171.285" y="378" fill="#f7f8f9">▒</text><text x="180.3" y="378" fill="#fefefe">▒</text><text x="189.315" y="378" fill="#ffffff">▒</text><text x="198.33" y="378" fill="#ffffff">▒</text><text x="207.345" y="378" fill="#ffffff">▒</text><text x="216.36" y="378" fill="#ffffff">▒</text><text x="225.375" y="378" fill="#ffffff">▒</text><text x="234.39" y="378" fill="#ffffff">▒</text><text x="243.405" y="378" fill="#f2f3f4">▒</text><text x="252.42" y="378" fill="#a9afb7">&amp;</text><text x="261.435" y="378" fill="#727c89">+</text><text x="270.45" y="378" fill="#717a87">+</text><text x="279.465" y="378" fill="#828a95">×</text><text x="288.48" y="378" fill="#7d8692">×</text><text x="297.495" y="378" fill="#6a7482">+</text><text x="306.51" y="378" fill="#626c7b">÷</text><text x="315.525" y="378" fill="#5c6776">÷</text><text x="324.54" y="378" fill="#576272">−</text><text x="333.555" y="378" fill="#354355">.</text><text x="63.105" y="396" fill="#404d5e">:</text><text x="72.12" y="396" fill="#535e6e">−</text><text x="81.135" y="396" fill="#5a6574">÷</text><text x="90.15" y="396" fill="#656f7e">÷</text><text x="99.165" y="396" fill="#727c89">+</text><text x="108.18" y="396" fill="#848c98">×</text><text x="117.195" y="396" fill="#8c949e">=</text><text x="126.21" y="396" fill="#b2b7be">&amp;</text><text x="135.225" y="396" fill="#e9ebed">░</text><text x="144.24" y="396" fill="#e7e9eb">░</text><text x="153.255" y="396" fill="#e9ebed">░</text><text x="162.27" y="396" fill="#e6e7ea">░</text><text x="171.285" y="396" fill="#e1e3e6">░</text><text x="180.3" y="396" fill="#e0e2e5">░</text><text x="189.315" y="396" fill="#e3e5e7">░</text><text x="198.33" y="396" fill="#e8eaec">░</text><text x="207.345" y="396" fill="#f2f3f4">▒</text><text x="216.36" y="396" fill="#f9fafa">▒</text><text x="225.375" y="396" fill="#fefefe">▒</text><text x="234.39" y="396" fill="#fdfdfd">▒</text><text x="243.405" y="396" fill="#e1e3e6">░</text><text x="252.42" y="396" fill="#a1a8b0">*</text><text x="261.435" y="396" fill="#6f7886">+</text><text x="270.45" y="396" fill="#67717f">÷</text><text x="279.465" y="396" fill="#66707e">÷</text><text x="288.48" y="396" fill="#616b7a">÷</text><text x="297.495" y="396" fill="#5c6776">÷</text><text x="306.51" y="396" fill="#535e6e">−</text><text x="315.525" y="396" fill="#495566">:</text><text x="324.54" y="396" fill="#3f4c5e">:</text><text x="63.105" y="414" fill="#2c3a4e">.</text><text x="72.12" y="414" fill="#404d5e">:</text><text x="81.135" y="414" fill="#455263">:</text><text x="90.15" y="414" fill="#505b6c">−</text><text x="99.165" y="414" fill="#556070">−</text><text x="108.18" y="414" fill="#54606f">−</text><text x="117.195" y="414" fill="#576272">−</text><text x="126.21" y="414" fill="#697381">+</text><text x="135.225" y="414" fill="#a9aeb6">&amp;</text><text x="144.24" y="414" fill="#ced1d6">#</text><text x="153.255" y="414" fill="#c8ccd1">#</text><text x="162.27" y="414" fill="#ced1d6">#</text><text x="171.285" y="414" fill="#dfe2e4">@</text><text x="180.3" y="414" fill="#ecedef">░</text><text x="189.315" y="414" fill="#f4f5f6">▒</text><text x="198.33" y="414" fill="#f7f8f9">▒</text><text x="207.345" y="414" fill="#f5f5f6">▒</text><text x="216.36" y="414" fill="#f5f5f6">▒</text><text x="225.375" y="414" fill="#f6f6f7">▒</text><text x="234.39" y="414" fill="#e3e5e7">░</text><text x="243.405" y="414" fill="#a8adb5">&amp;</text><text x="252.42" y="414" fill="#737d8a">+</text><text x="261.435" y="414" fill="#5c6776">÷</text><text x="270.45" y="414" fill="#54606f">−</text><text x="279.465" y="414" fill="#4f5b6b">−</text><text x="288.48" y="414" fill="#4b5767">−</text><text x="297.495" y="414" fill="#485465">:</text><text x="306.51" y="414" fill="#434f61">:</text><text x="315.525" y="414" fill="#404d5e">:</text><text x="81.135" y="432" fill="#3a4759">.</text><text x="90.15" y="432" fill="#3a4759">.</text><text x="99.165" y="432" fill="#3c495b">:</text><text x="108.18" y="432" fill="#3c485b">:</text><text x="117.195" y="432" fill="#435061">:</text><text x="126.21" y="432" fill="#4e5a6a">−</text><text x="135.225" y="432" fill="#687280">+</text><text x="144.24" y="432" fill="#878f9a">=</text><text x="153.255" y="432" fill="#9ba2ab">*</text><text x="162.27" y="432" fill="#b5bac1">%</text><text x="171.285" y="432" fill="#d0d3d8">#</text><text x="180.3" y="432" fill="#eff0f2">▒</text><text x="189.315" y="432" fill="#ffffff">▒</text><text x="198.33" y="432" fill="#f9fafa">▒</text><text x="207.345" y="432" fill="#dfe1e4">@</text><text x="216.36" y="432" fill="#c4c8cd">#</text><text x="225.375" y="432" fill="#a5abb3">&amp;</text><text x="234.39" y="432" fill="#8a919c">=</text><text x="243.405" y="432" fill="#727b88">+</text><text x="252.42" y="432" fill="#54606f">−</text><text x="261.435" y="432" fill="#4b5768">−</text><text x="270.45" y="432" fill="#465264">:</text><text x="279.465" y="432" fill="#435061">:</text><text x="288.48" y="432" fill="#424e60">:</text><text x="297.495" y="432" fill="#3e4b5d">:</text><text x="306.51" y="432" fill="#3d4a5c">:</text><text x="315.525" y="432" fill="#455263">:</text><text x="90.15" y="450" fill="#2f3d50">.</text><text x="99.165" y="450" fill="#334053">.</text><text x="108.18" y="450" fill="#3b485a">:</text><text x="117.195" y="450" fill="#3c495b">:</text><text x="126.21" y="450" fill="#475364">:</text><text x="135.225" y="450" fill="#535f6f">−</text><text x="144.24" y="450" fill="#636d7b">÷</text><text x="153.255" y="450" fill="#77808d">×</text><text x="162.27" y="450" fill="#77808d">×</text><text x="171.285" y="450" fill="#949ba5">=</text><text x="180.3" y="450" fill="#abb1b8">&amp;</text><text x="189.315" y="450" fill="#c5c9ce">#</text><text x="198.33" y="450" fill="#c3c7cd">#</text><text x="207.345" y="450" fill="#aab0b8">&amp;</text><text x="216.36" y="450" fill="#8a929d">=</text><text x="225.375" y="450" fill="#6f7886">+</text><text x="234.39" y="450" fill="#5f6a78">÷</text><text x="243.405" y="450" fill="#5a6574">÷</text><text x="252.42" y="450" fill="#515c6c">−</text><text x="261.435" y="450" fill="#465264">:</text><text x="270.45" y="450" fill="#414d5f">:</text><text x="279.465" y="450" fill="#3a4759">.</text><text x="288.48" y="450" fill="#354355">.</text><text x="297.495" y="450" fill="#384558">.</text><text x="306.51" y="450" fill="#5c6776">÷</text><text x="315.525" y="450" fill="#7c8591">×</text><text x="90.15" y="468" fill="#6a7482">+</text><text x="99.165" y="468" fill="#576272">−</text><text x="108.18" y="468" fill="#3c495b">:</text><text x="117.195" y="468" fill="#3c495b">:</text><text x="126.21" y="468" fill="#455263">:</text><text x="135.225" y="468" fill="#4b5767">−</text><text x="144.24" y="468" fill="#5c6776">÷</text><text x="153.255" y="468" fill="#525d6d">−</text><text x="162.27" y="468" fill="#646f7d">÷</text><text x="171.285" y="468" fill="#6d7784">+</text><text x="180.3" y="468" fill="#6b7583">+</text><text x="189.315" y="468" fill="#707987">+</text><text x="198.33" y="468" fill="#78818d">×</text><text x="207.345" y="468" fill="#6c7684">+</text><text x="216.36" y="468" fill="#596473">÷</text><text x="225.375" y="468" fill="#54606f">−</text><text x="234.39" y="468" fill="#465264">:</text><text x="243.405" y="468" fill="#485465">:</text><text x="252.42" y="468" fill="#505b6c">−</text><text x="261.435" y="468" fill="#465264">:</text><text x="270.45" y="468" fill="#3c485b">:</text><text x="279.465" y="468" fill="#334053">.</text><text x="288.48" y="468" fill="#3c495b">:</text><text x="297.495" y="468" fill="#77808d">×</text><text x="306.51" y="468" fill="#d9dcdf">@</text><text x="315.525" y="468" fill="#cbcfd3">#</text><text x="324.54" y="468" fill="#344255">.</text><text x="72.12" y="486" fill="#2c3a4e">.</text><text x="81.135" y="486" fill="#77808d">×</text><text x="90.15" y="486" fill="#dadde0">@</text><text x="99.165" y="486" fill="#bfc3c9">%</text><text x="108.18" y="486" fill="#77808d">×</text><text x="117.195" y="486" fill="#435061">:</text><text x="126.21" y="486" fill="#354355">.</text><text x="135.225" y="486" fill="#3c495b">:</text><text x="144.24" y="486" fill="#424e60">:</text><text x="153.255" y="486" fill="#3e4b5d">:</text><text x="162.27" y="486" fill="#495566">:</text><text x="171.285" y="486" fill="#4e5a6a">−</text><text x="180.3" y="486" fill="#4b5768">−</text><text x="189.315" y="486" fill="#515c6c">−</text><text x="198.33" y="486" fill="#535e6e">−</text><text x="207.345" y="486" fill="#465264">:</text><text x="216.36" y="486" fill="#374457">.</text><text x="225.375" y="486" fill="#374457">.</text><text x="234.39" y="486" fill="#3a4759">.</text><text x="243.405" y="486" fill="#3b485a">:</text><text x="252.42" y="486" fill="#323f52">.</text><text x="261.435" y="486" fill="#2c3a4d">.</text><text x="270.45" y="486" fill="#2c3a4d">.</text><text x="279.465" y="486" fill="#435061">:</text><text x="288.48" y="486" fill="#939aa4">=</text><text x="297.495" y="486" fill="#dddfe2">@</text><text x="306.51" y="486" fill="#f6f6f7">▒</text><text x="315.525" y="486" fill="#fcfcfc">▒</text><text x="324.54" y="486" fill="#d0d3d7">#</text><text x="333.555" y="486" fill="#535e6e">−</text><text x="45.075" y="504" fill="#2c3a4e">.</text><text x="54.09" y="504" fill="#344154">.</text><text x="63.105" y="504" fill="#323f52">.</text><text x="72.12" y="504" fill="#89909b">=</text><text x="81.135" y="504" fill="#f6f6f7">▒</text><text x="90.15" y="504" fill="#f4f5f6">▒</text><text x="99.165" y="504" fill="#e8eaec">░</text><text x="108.18" y="504" fill="#cdd0d5">#</text><text x="117.195" y="504" fill="#989fa8">*</text><text x="126.21" y="504" fill="#576272">−</text><text x="135.225" y="504" fill="#3c495b">:</text><text x="144.24" y="504" fill="#344154">.</text><text x="171.285" y="504" fill="#313f52">.</text><text x="180.3" y="504" fill="#364356">.</text><text x="189.315" y="504" fill="#334053">.</text><text x="198.33" y="504" fill="#3a4759">.</text><text x="207.345" y="504" fill="#313f52">.</text><text x="216.36" y="504" fill="#2c3a4d">.</text><text x="252.42" y="504" fill="#2c3a4e">.</text><text x="261.435" y="504" fill="#3b485a">:</text><text x="270.45" y="504" fill="#6f7886">+</text><text x="279.465" y="504" fill="#b9bec4">%</text><text x="288.48" y="504" fill="#e7e8ea">░</text><text x="297.495" y="504" fill="#fbfbfc">▒</text><text x="306.51" y="504" fill="#ffffff">▒</text><text x="315.525" y="504" fill="#ffffff">▒</text><text x="324.54" y="504" fill="#c8cbd0">#</text><text x="333.555" y="504" fill="#556070">−</text><text x="342.57" y="504" fill="#414d5f">:</text><text x="351.585" y="504" fill="#404d5e">:</text><text x="360.6" y="504" fill="#3c495b">:</text><text x="369.615" y="504" fill="#384558">.</text><text x="378.63" y="504" fill="#2c3a4e">.</text><text x="18.03" y="522" fill="#303e51">.</text><text x="27.045" y="522" fill="#344154">.</text><text x="36.06" y="522" fill="#3c485b">:</text><text x="45.075" y="522" fill="#374457">.</text><text x="54.09" y="522" fill="#354355">.</text><text x="63.105" y="522" fill="#344255">.</text><text x="72.12" y="522" fill="#434f61">:</text><text x="81.135" y="522" fill="#aab0b8">&amp;</text><text x="90.15" y="522" fill="#f9fafa">▒</text><text x="99.165" y="522" fill="#ffffff">▒</text><text x="108.18" y="522" fill="#f2f3f4">▒</text><text x="117.195" y="522" fill="#e3e5e7">░</text><text x="126.21" y="522" fill="#ced1d6">#</text><text x="135.225" y="522" fill="#a8adb5">&amp;</text><text x="144.24" y="522" fill="#828b96">×</text><text x="153.255" y="522" fill="#5c6776">÷</text><text x="162.27" y="522" fill="#3c495b">:</text><text x="171.285" y="522" fill="#334053">.</text><text x="180.3" y="522" fill="#323f52">.</text><text x="189.315" y="522" fill="#2c3a4d">.</text><text x="198.33" y="522" fill="#344255">.</text><text x="207.345" y="522" fill="#384558">.</text><text x="216.36" y="522" fill="#414d5f">:</text><text x="225.375" y="522" fill="#424e60">:</text><text x="234.39" y="522" fill="#435061">:</text><text x="243.405" y="522" fill="#586372">−</text><text x="252.42" y="522" fill="#79828e">×</text><text x="261.435" y="522" fill="#a6acb4">&amp;</text><text x="270.45" y="522" fill="#d9dcdf">@</text><text x="279.465" y="522" fill="#f6f6f7">▒</text><text x="288.48" y="522" fill="#ffffff">▒</text><text x="297.495" y="522" fill="#fdfdfd">▒</text><text x="306.51" y="522" fill="#d0d3d7">#</text><text x="315.525" y="522" fill="#7b8490">×</text><text x="324.54" y="522" fill="#3a4759">.</text><text x="333.555" y="522" fill="#374457">.</text><text x="342.57" y="522" fill="#3e4b5d">:</text><text x="351.585" y="522" fill="#414d5f">:</text><text x="360.6" y="522" fill="#414d5f">:</text><text x="369.615" y="522" fill="#495566">:</text><text x="378.63" y="522" fill="#3d4a5c">:</text><text x="387.645" y="522" fill="#344255">.</text><text x="9.015" y="540" fill="#2c3a4d">.</text><text x="18.03" y="540" fill="#2c3a4d">.</text><text x="27.045" y="540" fill="#2c3a4d">.</text><text x="36.06" y="540" fill="#313f52">.</text><text x="45.075" y="540" fill="#384558">.</text><text x="54.09" y="540" fill="#334053">.</text><text x="63.105" y="540" fill="#2e3c4f">.</text><text x="72.12" y="540" fill="#2c3a4e">.</text><text x="90.15" y="540" fill="#66707e">÷</text><text x="99.165" y="540" fill="#c9cdd2">#</text><text x="108.18" y="540" fill="#ffffff">▒</text><text x="117.195" y="540" fill="#ffffff">▒</text><text x="126.21" y="540" fill="#fcfcfc">▒</text><text x="135.225" y="540" fill="#f0f1f3">▒</text><text x="144.24" y="540" fill="#e0e2e5">░</text><text x="153.255" y="540" fill="#c9cdd2">#</text><text x="162.27" y="540" fill="#b6bbc1">%</text><text x="171.285" y="540" fill="#a3a9b2">*</text><text x="180.3" y="540" fill="#999fa9">*</text><text x="189.315" y="540" fill="#8e95a0">=</text><text x="198.33" y="540" fill="#8b939e">=</text><text x="207.345" y="540" fill="#8a929d">=</text><text x="216.36" y="540" fill="#939aa4">=</text><text x="225.375" y="540" fill="#9aa1aa">*</text><text x="234.39" y="540" fill="#b3b8bf">%</text><text x="243.405" y="540" fill="#c3c7cd">#</text><text x="252.42" y="540" fill="#e2e4e7">░</text><text x="261.435" y="540" fill="#f8f9f9">▒</text><text x="270.45" y="540" fill="#edeef0">░</text><text x="279.465" y="540" fill="#caced3">#</text><text x="288.48" y="540" fill="#929aa4">=</text><text x="297.495" y="540" fill="#5b6575">÷</text><text x="306.51" y="540" fill="#334053">.</text><text x="324.54" y="540" fill="#323f52">.</text><text x="333.555" y="540" fill="#364356">.</text><text x="342.57" y="540" fill="#394658">.</text><text x="351.585" y="540" fill="#394658">.</text><text x="360.6" y="540" fill="#374457">.</text><text x="369.615" y="540" fill="#3d4a5c">:</text><text x="378.63" y="540" fill="#374457">.</text><text x="387.645" y="540" fill="#303e51">.</text><text x="9.015" y="558" fill="#2d3b4f">.</text><text x="18.03" y="558" fill="#2c3a4e">.</text><text x="27.045" y="558" fill="#2c3a4d">.</text><text x="36.06" y="558" fill="#2d3b4f">.</text><text x="45.075" y="558" fill="#303e51">.</text><text x="54.09" y="558" fill="#313f52">.</text><text x="63.105" y="558" fill="#2f3d50">.</text><text x="72.12" y="558" fill="#2d3b4f">.</text><text x="81.135" y="558" fill="#2c3a4d">.</text><text x="99.165" y="558" fill="#2c3a4e">.</text><text x="108.18" y="558" fill="#636d7b">÷</text><text x="117.195" y="558" fill="#aeb3bb">&amp;</text><text x="126.21" y="558" fill="#e1e3e6">░</text><text x="135.225" y="558" fill="#ffffff">▒</text><text x="144.24" y="558" fill="#ffffff">▒</text><text x="153.255" y="558" fill="#ffffff">▒</text><text x="162.27" y="558" fill="#f9fafa">▒</text><text x="171.285" y="558" fill="#edeef0">░</text><text x="180.3" y="558" fill="#e5e7e9">░</text><text x="189.315" y="558" fill="#e8eaec">░</text><text x="198.33" y="558" fill="#eaebed">░</text><text x="207.345" y="558" fill="#ebecee">░</text><text x="216.36" y="558" fill="#eff0f1">░</text><text x="225.375" y="558" fill="#f5f5f6">▒</text><text x="234.39" y="558" fill="#fbfbfc">▒</text><text x="243.405" y="558" fill="#fbfbfc">▒</text><text x="252.42" y="558" fill="#cdd0d5">#</text><text x="261.435" y="558" fill="#7d8692">×</text><text x="270.45" y="558" fill="#465264">:</text><text x="279.465" y="558" fill="#2d3b4f">.</text><text x="297.495" y="558" fill="#2c3a4d">.</text><text x="306.51" y="558" fill="#313f52">.</text><text x="315.525" y="558" fill="#334053">.</text><text x="324.54" y="558" fill="#344154">.</text><text x="333.555" y="558" fill="#334053">.</text><text x="342.57" y="558" fill="#334053">.</text><text x="351.585" y="558" fill="#344255">.</text><text x="360.6" y="558" fill="#344154">.</text><text x="369.615" y="558" fill="#3b485a">:</text><text x="378.63" y="558" fill="#364356">.</text><text x="387.645" y="558" fill="#2d3b4f">.</text><text x="9.015" y="576" fill="#2d3b4f">.</text><text x="18.03" y="576" fill="#2e3c4f">.</text><text x="27.045" y="576" fill="#2c3a4d">.</text><text x="45.075" y="576" fill="#2d3b4f">.</text><text x="54.09" y="576" fill="#2e3c4f">.</text><text x="63.105" y="576" fill="#2c3a4d">.</text><text x="72.12" y="576" fill="#2c3a4d">.</text><text x="81.135" y="576" fill="#2c3a4e">.</text><text x="90.15" y="576" fill="#2c3a4e">.</text><text x="126.21" y="576" fill="#344154">.</text><text x="135.225" y="576" fill="#636d7b">÷</text><text x="144.24" y="576" fill="#b0b5bc">&amp;</text><text x="153.255" y="576" fill="#e0e2e5">░</text><text x="162.27" y="576" fill="#edeef0">░</text><text x="171.285" y="576" fill="#f4f5f6">▒</text><text x="180.3" y="576" fill="#ffffff">▒</text><text x="189.315" y="576" fill="#ffffff">▒</text><text x="198.33" y="576" fill="#ffffff">▒</text><text x="207.345" y="576" fill="#fcfcfc">▒</text><text x="216.36" y="576" fill="#f5f5f6">▒</text><text x="225.375" y="576" fill="#eff0f1">░</text><text x="234.39" y="576" fill="#d3d6da">@</text><text x="243.405" y="576" fill="#6d7784">+</text><text x="279.465" y="576" fill="#2f3d50">.</text><text x="288.48" y="576" fill="#323f52">.</text><text x="297.495" y="576" fill="#344154">.</text><text x="306.51" y="576" fill="#344154">.</text><text x="315.525" y="576" fill="#303e51">.</text><text x="324.54" y="576" fill="#2f3d50">.</text><text x="333.555" y="576" fill="#313f52">.</text><text x="342.57" y="576" fill="#364356">.</text><text x="351.585" y="576" fill="#354355">.</text><text x="360.6" y="576" fill="#303e51">.</text><text x="369.615" y="576" fill="#354355">.</text><text x="378.63" y="576" fill="#303e51">.</text><text x="18.03" y="594" fill="#2c3a4e">.</text><text x="27.045" y="594" fill="#2d3b4f">.</text><text x="36.06" y="594" fill="#2c3a4e">.</text><text x="45.075" y="594" fill="#2c3a4e">.</text><text x="54.09" y="594" fill="#2d3b4f">.</text><text x="63.105" y="594" fill="#2e3c4f">.</text><text x="99.165" y="594" fill="#2c3a4e">.</text><text x="117.195" y="594" fill="#2c3a4d">.</text><text x="153.255" y="594" fill="#313f52">.</text><text x="162.27" y="594" fill="#3a4759">.</text><text x="171.285" y="594" fill="#414d5f">:</text><text x="180.3" y="594" fill="#535f6f">−</text><text x="189.315" y="594" fill="#67717f">÷</text><text x="198.33" y="594" fill="#5f6a78">÷</text><text x="207.345" y="594" fill="#4d5969">−</text><text x="216.36" y="594" fill="#435061">:</text><text x="225.375" y="594" fill="#3c495b">:</text><text x="234.39" y="594" fill="#2e3c4f">.</text><text x="270.45" y="594" fill="#2e3c4f">.</text><text x="279.465" y="594" fill="#2e3c4f">.</text><text x="288.48" y="594" fill="#303e51">.</text><text x="297.495" y="594" fill="#313f52">.</text><text x="306.51" y="594" fill="#2c3a4e">.</text><text x="315.525" y="594" fill="#2d3b4f">.</text><text x="324.54" y="594" fill="#2f3d50">.</text><text x="333.555" y="594" fill="#323f52">.</text><text x="342.57" y="594" fill="#344154">.</text><text x="351.585" y="594" fill="#2f3d50">.</text><text x="36.06" y="612" fill="#2c3a4d">.</text><text x="45.075" y="612" fill="#2c3a4d">.</text><text x="63.105" y="612" fill="#2f3d50">.</text><text x="72.12" y="612" fill="#2c3a4d">.</text><text x="108.18" y="612" fill="#2c3a4e">.</text><text x="117.195" y="612" fill="#2c3a4e">.</text><text x="234.39" y="612" fill="#2c3a4d">.</text><text x="270.45" y="612" fill="#2d3b4f">.</text><text x="279.465" y="612" fill="#2f3d50">.</text><text x="288.48" y="612" fill="#2e3c4f">.</text><text x="297.495" y="612" fill="#2c3a4d">.</text><text x="315.525" y="612" fill="#2c3a4d">.</text><text x="117.195" y="630" fill="#2c3a4d">.</text><text x="180.3" y="630" fill="#2c3a4d">.</text><text x="189.315" y="630" fill="#2c3a4d">.</text></svg>
